<mxfile host="" modified="2020-06-02T12:12:24.465Z" agent="5.0 (Windows NT 10.0; Win64; x64) AppleWebKit/537.36 (KHTML, like Gecko) Code/1.45.1 Chrome/78.0.3904.130 Electron/7.2.4 Safari/537.36" etag="O5rFKui4b6kyjaknDwW3" version="13.1.3">
    <diagram id="6hGFLwfOUW9BJ-s0fimq" name="Page-1">
        <mxGraphModel dx="1206" dy="791" grid="1" gridSize="10" guides="1" tooltips="1" connect="1" arrows="1" fold="1" page="1" pageScale="1" pageWidth="850" pageHeight="1100" math="0" shadow="0">
            <root>
                <mxCell id="0"/>
                <mxCell id="1" parent="0"/>
                <mxCell id="Gd53zhBSXM-tGxM4PoFd-4" style="edgeStyle=orthogonalEdgeStyle;rounded=0;orthogonalLoop=1;jettySize=auto;html=1;entryX=0.014;entryY=0.58;entryDx=0;entryDy=0;entryPerimeter=0;" parent="1" source="Gd53zhBSXM-tGxM4PoFd-1" target="Gd53zhBSXM-tGxM4PoFd-3" edge="1">
                    <mxGeometry relative="1" as="geometry"/>
                </mxCell>
                <mxCell id="Gd53zhBSXM-tGxM4PoFd-5" style="edgeStyle=orthogonalEdgeStyle;rounded=0;orthogonalLoop=1;jettySize=auto;html=1;" parent="1" source="Gd53zhBSXM-tGxM4PoFd-1" target="Gd53zhBSXM-tGxM4PoFd-2" edge="1">
                    <mxGeometry relative="1" as="geometry"/>
                </mxCell>
                <mxCell id="Gd53zhBSXM-tGxM4PoFd-1" value="MongoDB" style="shape=cylinder;whiteSpace=wrap;html=1;boundedLbl=1;backgroundOutline=1;fillColor=#B05A32;strokeColor=#6D1F00;fontColor=#ffffff;" parent="1" vertex="1">
                    <mxGeometry x="590" y="160" width="60" height="80" as="geometry"/>
                </mxCell>
                <mxCell id="Gd53zhBSXM-tGxM4PoFd-2" value="Dish&lt;br&gt;-name&lt;br&gt;-country&lt;br&gt;-tasty&lt;br&gt;&lt;div&gt;&lt;span&gt;-chefsID&lt;/span&gt;&lt;/div&gt;" style="shape=note;whiteSpace=wrap;html=1;backgroundOutline=1;darkOpacity=0.05;align=left;" parent="1" vertex="1">
                    <mxGeometry x="720" y="220" width="70" height="100" as="geometry"/>
                </mxCell>
                <mxCell id="Gd53zhBSXM-tGxM4PoFd-3" value="Chef&lt;br&gt;-name&lt;br&gt;&lt;div&gt;&lt;span&gt;-rating&lt;/span&gt;&lt;/div&gt;" style="shape=note;whiteSpace=wrap;html=1;backgroundOutline=1;darkOpacity=0.05;align=left;" parent="1" vertex="1">
                    <mxGeometry x="720" y="80" width="70" height="100" as="geometry"/>
                </mxCell>
                <mxCell id="Gd53zhBSXM-tGxM4PoFd-7" style="edgeStyle=orthogonalEdgeStyle;rounded=0;orthogonalLoop=1;jettySize=auto;html=1;entryX=0;entryY=0.5;entryDx=0;entryDy=0;" parent="1" source="Gd53zhBSXM-tGxM4PoFd-6" target="Gd53zhBSXM-tGxM4PoFd-1" edge="1">
                    <mxGeometry relative="1" as="geometry"/>
                </mxCell>
                <mxCell id="Gd53zhBSXM-tGxM4PoFd-6" value="node.js" style="rounded=0;whiteSpace=wrap;html=1;fillColor=#d5e8d4;strokeColor=#82b366;" parent="1" vertex="1">
                    <mxGeometry x="365" y="170" width="120" height="60" as="geometry"/>
                </mxCell>
                <mxCell id="Gd53zhBSXM-tGxM4PoFd-8" value="Mongoose &lt;br&gt;(db driver)" style="text;html=1;align=center;verticalAlign=middle;resizable=0;points=[];autosize=1;" parent="1" vertex="1">
                    <mxGeometry x="498" y="170" width="70" height="30" as="geometry"/>
                </mxCell>
                <mxCell id="Gd53zhBSXM-tGxM4PoFd-14" style="edgeStyle=orthogonalEdgeStyle;rounded=0;orthogonalLoop=1;jettySize=auto;html=1;entryX=0;entryY=0.5;entryDx=0;entryDy=0;" parent="1" source="Gd53zhBSXM-tGxM4PoFd-9" target="Gd53zhBSXM-tGxM4PoFd-6" edge="1">
                    <mxGeometry relative="1" as="geometry"/>
                </mxCell>
                <mxCell id="Gd53zhBSXM-tGxM4PoFd-9" value="Synchronous Commnunication Implementation" style="shape=cube;whiteSpace=wrap;html=1;boundedLbl=1;backgroundOutline=1;darkOpacity=0.05;darkOpacity2=0.1;fillColor=#fff2cc;strokeColor=#d6b656;" parent="1" vertex="1">
                    <mxGeometry x="200" y="160" width="120" height="80" as="geometry"/>
                </mxCell>
                <mxCell id="Gd53zhBSXM-tGxM4PoFd-13" style="edgeStyle=orthogonalEdgeStyle;rounded=0;orthogonalLoop=1;jettySize=auto;html=1;" parent="1" source="Gd53zhBSXM-tGxM4PoFd-10" target="Gd53zhBSXM-tGxM4PoFd-9" edge="1">
                    <mxGeometry relative="1" as="geometry"/>
                </mxCell>
                <mxCell id="Gd53zhBSXM-tGxM4PoFd-10" value="Client" style="shape=umlActor;verticalLabelPosition=bottom;labelBackgroundColor=#ffffff;verticalAlign=top;html=1;outlineConnect=0;fillColor=#f5f5f5;strokeColor=#666666;fontColor=#333333;" parent="1" vertex="1">
                    <mxGeometry x="110" y="170" width="30" height="60" as="geometry"/>
                </mxCell>
            </root>
        </mxGraphModel>
    </diagram>
</mxfile>